{
  "asset": {
    "version": "2.0",
    "generator": "babylon.js glTF exporter for Maya 2018 v20200228.3 (with minor hand modifications)"
  },
  "buffers": [
    {
      "uri": "FlightHelmet_1.bin",
      "byteLength": 620736
    },
    {
      "uri": "FlightHelmet_3.bin",
      "byteLength": 799692
    },
    {
      "uri": "FlightHelmet_5.bin",
      "byteLength": 273264
    },
    {
      "uri": "FlightHelmet_7.bin",
      "byteLength": 775104
    },
    {
      "uri": "FlightHelmet_9.bin",
      "byteLength": 733008
    },
    {
      "uri": "FlightHelmet_11.bin",
      "byteLength": 25344
    }
  ],
  "bufferViews": [
    {
      "buffer": 0,
      "byteOffset": 0,
      "byteLength": 251328,
      "byteStride": 24,
      "target": 34962
    },
    {
      "buffer": 0,
      "byteOffset": 251328,
      "byteLength": 167552,
      "byteStride": 16,
      "target": 34962
    },
    {
      "buffer": 0,
      "byteOffset": 418880,
      "byteLength": 83776,
      "byteStride": 8,
      "target": 34962
    },
    {
      "buffer": 0,
      "byteOffset": 502656,
      "byteLength": 118080,
      "target": 34963
    },
    {
      "buffer": 1,
      "byteOffset": 0,
      "byteLength": 327312,
      "byteStride": 24,
      "target": 34962
    },
    {
      "buffer": 1,
      "byteOffset": 327312,
      "byteLength": 218208,
      "byteStride": 16,
      "target": 34962
    },
    {
      "buffer": 1,
      "byteOffset": 545520,
      "byteLength": 109104,
      "byteStride": 8,
      "target": 34962
    },
    {
      "buffer": 1,
      "byteOffset": 654624,
      "byteLength": 145068,
      "target": 34963
    },
    {
      "buffer": 2,
      "byteOffset": 0,
      "byteLength": 112224,
      "byteStride": 24,
      "target": 34962
    },
    {
      "buffer": 2,
      "byteOffset": 112224,
      "byteLength": 74816,
      "byteStride": 16,
      "target": 34962
    },
    {
      "buffer": 2,
      "byteOffset": 187040,
      "byteLength": 37408,
      "byteStride": 8,
      "target": 34962
    },
    {
      "buffer": 2,
      "byteOffset": 224448,
      "byteLength": 48816,
      "target": 34963
    },
    {
      "buffer": 3,
      "byteOffset": 0,
      "byteLength": 327264,
      "byteStride": 24,
      "target": 34962
    },
    {
      "buffer": 3,
      "byteOffset": 327264,
      "byteLength": 218176,
      "byteStride": 16,
      "target": 34962
    },
    {
      "buffer": 3,
      "byteOffset": 545440,
      "byteLength": 109088,
      "byteStride": 8,
      "target": 34962
    },
    {
      "buffer": 3,
      "byteOffset": 654528,
      "byteLength": 120576,
      "target": 34963
    },
    {
      "buffer": 4,
      "byteOffset": 0,
      "byteLength": 300816,
      "byteStride": 24,
      "target": 34962
    },
    {
      "buffer": 4,
      "byteOffset": 300816,
      "byteLength": 200544,
      "byteStride": 16,
      "target": 34962
    },
    {
      "buffer": 4,
      "byteOffset": 501360,
      "byteLength": 100272,
      "byteStride": 8,
      "target": 34962
    },
    {
      "buffer": 4,
      "byteOffset": 601632,
      "byteLength": 131376,
      "target": 34963
    },
    {
      "buffer": 5,
      "byteOffset": 0,
      "byteLength": 10464,
      "byteStride": 24,
      "target": 34962
    },
    {
      "buffer": 5,
      "byteOffset": 10464,
      "byteLength": 6976,
      "byteStride": 16,
      "target": 34962
    },
    {
      "buffer": 5,
      "byteOffset": 17440,
      "byteLength": 3488,
      "byteStride": 8,
      "target": 34962
    },
    {
      "buffer": 5,
      "byteOffset": 20928,
      "byteLength": 4416,
      "target": 34963
    }
  ],
  "accessors": [
    {
      "bufferView": 0,
      "byteOffset": 0,
      "componentType": 5126,
      "normalized": false,
      "count": 10472,
      "min": [
        -0.0722125768661499,
        0.10412022471427917,
        -0.08839477598667145
      ],
      "max": [
        0.108108289539814,
        0.3565802574157715,
        0.19040986895561218
      ],
      "type": "VEC3"
    },
    {
      "bufferView": 0,
      "byteOffset": 12,
      "componentType": 5126,
      "normalized": false,
      "count": 10472,
      "min": [
        -0.9998682737350464,
        -0.9999690055847168,
        -0.9999495148658752
      ],
      "max": [
        0.9999465346336365,
        0.9999475479125977,
        0.9997301697731018
      ],
      "type": "VEC3"
    },
    {
      "bufferView": 1,
      "byteOffset": 0,
      "componentType": 5126,
      "normalized": false,
      "count": 10472,
      "min": [
        -0.9998931884765625,
        -0.9998220205307007,
        -0.9998051524162292,
        1
      ],
      "max": [
        0.9998195767402649,
        0.971885621547699,
        0.9998193383216858,
        1
      ],
      "type": "VEC4"
    },
    {
      "bufferView": 2,
      "byteOffset": 0,
      "componentType": 5126,
      "normalized": false,
      "count": 10472,
      "min": [
        0.008617740124464035,
        0.4589419960975647
      ],
      "max": [
        0.9269070029258728,
        0.5900999903678894
      ],
      "type": "VEC2"
    },
    {
      "bufferView": 3,
      "byteOffset": 0,
      "componentType": 5123,
      "normalized": false,
      "count": 59040,
      "min": [
        0
      ],
      "max": [
        10471
      ],
      "type": "SCALAR"
    },
    {
      "bufferView": 4,
      "byteOffset": 0,
      "componentType": 5126,
      "normalized": false,
      "count": 13638,
      "min": [
        -0.15885746479034424,
        -0.00002142429366358556,
        -0.17154578864574432
      ],
      "max": [
        0.1629406362771988,
        0.7025225758552551,
        0.2000291645526886
      ],
      "type": "VEC3"
    },
    {
      "bufferView": 4,
      "byteOffset": 12,
      "componentType": 5126,
      "normalized": false,
      "count": 13638,
      "min": [
        -1,
        -1,
        -1
      ],
      "max": [
        1,
        1,
        1
      ],
      "type": "VEC3"
    },
    {
      "bufferView": 5,
      "byteOffset": 0,
      "componentType": 5126,
      "normalized": false,
      "count": 13638,
      "min": [
        -0.9999998807907104,
        -0.9999496936798096,
        -0.9999695420265198,
        -1
      ],
      "max": [
        1,
        0.9999997019767761,
        0.9996488690376282,
        1
      ],
      "type": "VEC4"
    },
    {
      "bufferView": 6,
      "byteOffset": 0,
      "componentType": 5126,
      "normalized": false,
      "count": 13638,
      "min": [
        0.009647809900343418,
        0.010762989521026611
      ],
      "max": [
        0.9925310015678406,
        0.9847761988639832
      ],
      "type": "VEC2"
    },
    {
      "bufferView": 7,
      "byteOffset": 0,
      "componentType": 5123,
      "normalized": false,
      "count": 72534,
      "min": [
        0
      ],
      "max": [
        13637
      ],
      "type": "SCALAR"
    },
    {
      "bufferView": 8,
      "byteOffset": 0,
      "componentType": 5126,
      "normalized": false,
      "count": 4676,
      "min": [
        -0.14084601402282715,
        0.4409570097923279,
        -0.1078183650970459
      ],
      "max": [
        0.14049406349658966,
        0.6182865500450134,
        0.14737364649772644
      ],
      "type": "VEC3"
    },
    {
      "bufferView": 8,
      "byteOffset": 12,
      "componentType": 5126,
      "normalized": false,
      "count": 4676,
      "min": [
        -0.999915361404419,
        -0.9999002814292908,
        -0.9998449087142944
      ],
      "max": [
        0.9999154210090637,
        0.9999252557754517,
        0.9999473690986633
      ],
      "type": "VEC3"
    },
    {
      "bufferView": 9,
      "byteOffset": 0,
      "componentType": 5126,
      "normalized": false,
      "count": 4676,
      "min": [
        -0.9999966621398926,
        -0.9998803734779358,
        -0.9999945759773254,
        1
      ],
      "max": [
        0.9994044899940491,
        0.9996466636657715,
        0.9999945163726807,
        1
      ],
      "type": "VEC4"
    },
    {
      "bufferView": 10,
      "byteOffset": 0,
      "componentType": 5126,
      "normalized": false,
      "count": 4676,
      "min": [
        0.017704999074339867,
        0.01640099287033081
      ],
      "max": [
        0.9942280054092407,
        0.9887650012969971
      ],
      "type": "VEC2"
    },
    {
      "bufferView": 11,
      "byteOffset": 0,
      "componentType": 5123,
      "normalized": false,
      "count": 24408,
      "min": [
        0
      ],
      "max": [
        4675
      ],
      "type": "SCALAR"
    },
    {
      "bufferView": 12,
      "byteOffset": 0,
      "componentType": 5126,
      "normalized": false,
      "count": 13636,
      "min": [
        -0.20364271104335785,
        0.021160749718546867,
        -0.14751268923282623
      ],
      "max": [
        0.1327083706855774,
        0.6024364233016968,
        0.19947707653045654
      ],
      "type": "VEC3"
    },
    {
      "bufferView": 12,
      "byteOffset": 12,
      "componentType": 5126,
      "normalized": false,
      "count": 13636,
      "min": [
        -0.9995061159133911,
        -0.999977707862854,
        -0.999999463558197
      ],
      "max": [
        0.9996864199638367,
        0.9999645352363586,
        0.999999463558197
      ],
      "type": "VEC3"
    },
    {
      "bufferView": 13,
      "byteOffset": 0,
      "componentType": 5126,
      "normalized": false,
      "count": 13636,
      "min": [
        -0.9999999403953552,
        -0.9999996423721313,
        -0.9999971985816956,
        -1
      ],
      "max": [
        0.9998770356178284,
        0.9999485015869141,
        0.9998076558113098,
        1
      ],
      "type": "VEC4"
    },
    {
      "bufferView": 14,
      "byteOffset": 0,
      "componentType": 5126,
      "normalized": false,
      "count": 13636,
      "min": [
        0.00990993995219469,
        0.012597978115081787
      ],
      "max": [
        0.9912530183792114,
        0.9927529692649841
      ],
      "type": "VEC2"
    },
    {
      "bufferView": 15,
      "byteOffset": 0,
      "componentType": 5123,
      "normalized": false,
      "count": 60288,
      "min": [
        0
      ],
      "max": [
        13635
      ],
      "type": "SCALAR"
    },
    {
      "bufferView": 16,
      "byteOffset": 0,
      "componentType": 5126,
      "normalized": false,
      "count": 12534,
      "min": [
        -0.12586301565170288,
        0.29582661390304565,
        -0.15415160357952118
      ],
      "max": [
        0.12493337690830231,
        0.7160004377365112,
        0.1291685551404953
      ],
      "type": "VEC3"
    },
    {
      "bufferView": 16,
      "byteOffset": 12,
      "componentType": 5126,
      "normalized": false,
      "count": 12534,
      "min": [
        -0.9999925494194031,
        -0.9998548030853271,
        -0.999951958656311
      ],
      "max": [
        0.9999923706054688,
        0.9998153448104858,
        0.999984860420227
      ],
      "type": "VEC3"
    },
    {
      "bufferView": 17,
      "byteOffset": 0,
      "componentType": 5126,
      "normalized": false,
      "count": 12534,
      "min": [
        -0.9999614953994751,
        -0.9999892711639404,
        -0.9999998807907104,
        1
      ],
      "max": [
        0.9999915957450867,
        0.9999412298202515,
        0.9999598860740662,
        1
      ],
      "type": "VEC4"
    },
    {
      "bufferView": 18,
      "byteOffset": 0,
      "componentType": 5126,
      "normalized": false,
      "count": 12534,
      "min": [
        0.007117580156773329,
        0.0034009814262390137
      ],
      "max": [
        0.9929220080375671,
        0.9929952621459961
      ],
      "type": "VEC2"
    },
    {
      "bufferView": 19,
      "byteOffset": 0,
      "componentType": 5123,
      "normalized": false,
      "count": 65688,
      "min": [
        0
      ],
      "max": [
        12533
      ],
      "type": "SCALAR"
    },
    {
      "bufferView": 20,
      "byteOffset": 0,
      "componentType": 5126,
      "normalized": false,
      "count": 436,
      "min": [
        -0.101920947432518,
        0.5300428867340088,
        0.09017482399940491
      ],
      "max": [
        0.10192074626684189,
        0.5936986207962036,
        0.1529267281293869
      ],
      "type": "VEC3"
    },
    {
      "bufferView": 20,
      "byteOffset": 12,
      "componentType": 5126,
      "normalized": false,
      "count": 436,
      "min": [
        -0.9894489049911499,
        -0.9974570274353027,
        -0.941438615322113
      ],
      "max": [
        0.989447832107544,
        0.9989492893218994,
        0.9983446002006531
      ],
      "type": "VEC3"
    },
    {
      "bufferView": 21,
      "byteOffset": 0,
      "componentType": 5126,
      "normalized": false,
      "count": 436,
      "min": [
        -0.9381080269813538,
        -0.9910504817962646,
        -0.9864502549171448,
        1
      ],
      "max": [
        0.9991254806518555,
        0.9998031854629517,
        0.9990941286087036,
        1
      ],
      "type": "VEC4"
    },
    {
      "bufferView": 22,
      "byteOffset": 0,
      "componentType": 5126,
      "normalized": false,
      "count": 436,
      "min": [
        0.03044150024652481,
        0.03334200382232666
      ],
      "max": [
        0.9790530204772949,
        0.6322129964828491
      ],
      "type": "VEC2"
    },
    {
      "bufferView": 23,
      "byteOffset": 0,
      "componentType": 5123,
      "normalized": false,
      "count": 2208,
      "min": [
        0
      ],
      "max": [
        435
      ],
      "type": "SCALAR"
    }
  ],
  "scene": 0,
  "scenes": [
    {
      "nodes": [
        0,
        1,
        2,
        3,
        4,
        5
      ],
      "name": "FlightHelmet"
    }
  ],
  "nodes": [
    {
      "name": "Hose_low",
      "mesh": 0
    },
    {
      "name": "RubberWood_low",
      "mesh": 1
    },
    {
      "name": "GlassPlastic_low",
      "mesh": 2
    },
    {
      "name": "MetalParts_low",
      "mesh": 3
    },
    {
      "name": "LeatherParts_low",
      "mesh": 4
    },
    {
      "name": "Lenses_low",
      "mesh": 5
    }
  ],
  "meshes": [
    {
      "primitives": [
        {
          "material": 0,
          "mode": 4,
          "attributes": {
            "POSITION": 0,
            "NORMAL": 1,
            "TANGENT": 2,
            "TEXCOORD_0": 3
          },
          "indices": 4
        }
      ]
    },
    {
      "primitives": [
        {
          "material": 1,
          "mode": 4,
          "attributes": {
            "POSITION": 5,
            "NORMAL": 6,
            "TANGENT": 7,
            "TEXCOORD_0": 8
          },
          "indices": 9
        }
      ]
    },
    {
      "primitives": [
        {
          "material": 2,
          "mode": 4,
          "attributes": {
            "POSITION": 10,
            "NORMAL": 11,
            "TANGENT": 12,
            "TEXCOORD_0": 13
          },
          "indices": 14
        }
      ]
    },
    {
      "primitives": [
        {
          "material": 3,
          "mode": 4,
          "attributes": {
            "POSITION": 15,
            "NORMAL": 16,
            "TANGENT": 17,
            "TEXCOORD_0": 18
          },
          "indices": 19
        }
      ]
    },
    {
      "primitives": [
        {
          "material": 4,
          "mode": 4,
          "attributes": {
            "POSITION": 20,
            "NORMAL": 21,
            "TANGENT": 22,
            "TEXCOORD_0": 23
          },
          "indices": 24
        }
      ]
    },
    {
      "primitives": [
        {
          "material": 5,
          "mode": 4,
          "attributes": {
            "POSITION": 25,
            "NORMAL": 26,
            "TANGENT": 27,
            "TEXCOORD_0": 28
          },
          "indices": 29
        }
      ]
    }
  ],
  "materials": [
    {
      "pbrMetallicRoughness": {
        "baseColorFactor": [
          1,
          1,
          1,
          1
        ],
        "metallicFactor": 1,
        "roughnessFactor": 1,
        "baseColorTexture": {
          "index": 0,
          "texCoord": 0
        },
        "metallicRoughnessTexture": {
          "index": 1,
          "texCoord": 0
        }
      },
      "emissiveFactor": [
        0,
        0,
        0
      ],
      "alphaMode": "OPAQUE",
      "doubleSided": true,
      "normalTexture": {
        "index": 2,
        "texCoord": 0,
        "scale": 1
      },
      "occlusionTexture": {
        "index": 1,
        "texCoord": 0,
        "strength": 1
      }
    },
    {
      "pbrMetallicRoughness": {
        "baseColorFactor": [
          1,
          1,
          1,
          1
        ],
        "metallicFactor": 1,
        "roughnessFactor": 1,
        "baseColorTexture": {
          "index": 0,
          "texCoord": 0
        },
        "metallicRoughnessTexture": {
          "index": 1,
          "texCoord": 0
        }
      },
      "emissiveFactor": [
        0,
        0,
        0
      ],
      "alphaMode": "OPAQUE",
      "doubleSided": false,
      "normalTexture": {
        "index": 2,
        "texCoord": 0,
        "scale": 1
      },
      "occlusionTexture": {
        "index": 1,
        "texCoord": 0,
        "strength": 1
      }
    },
    {
      "pbrMetallicRoughness": {
        "baseColorFactor": [
          1,
          1,
          1,
          1
        ],
        "metallicFactor": 1,
        "roughnessFactor": 1,
        "baseColorTexture": {
          "index": 3,
          "texCoord": 0
        },
        "metallicRoughnessTexture": {
          "index": 4,
          "texCoord": 0
        }
      },
      "emissiveFactor": [
        0,
        0,
        0
      ],
      "alphaMode": "OPAQUE",
      "doubleSided": false,
      "normalTexture": {
        "index": 5,
        "texCoord": 0,
        "scale": 1
      },
      "occlusionTexture": {
        "index": 4,
        "texCoord": 0,
        "strength": 1
      }
    },
    {
      "pbrMetallicRoughness": {
        "baseColorFactor": [
          1,
          1,
          1,
          1
        ],
        "metallicFactor": 1,
        "roughnessFactor": 1,
        "baseColorTexture": {
          "index": 6,
          "texCoord": 0
        },
        "metallicRoughnessTexture": {
          "index": 7,
          "texCoord": 0
        }
      },
      "emissiveFactor": [
        0,
        0,
        0
      ],
      "alphaMode": "OPAQUE",
      "doubleSided": false,
      "normalTexture": {
        "index": 8,
        "texCoord": 0,
        "scale": 1
      },
      "occlusionTexture": {
        "index": 7,
        "texCoord": 0,
        "strength": 1
      }
    },
    {
      "pbrMetallicRoughness": {
        "baseColorFactor": [
          1,
          1,
          1,
          1
        ],
        "metallicFactor": 1,
        "roughnessFactor": 1,
        "baseColorTexture": {
          "index": 9,
          "texCoord": 0
        },
        "metallicRoughnessTexture": {
          "index": 10,
          "texCoord": 0
        }
      },
      "emissiveFactor": [
        0,
        0,
        0
      ],
      "alphaMode": "OPAQUE",
      "doubleSided": false,
      "normalTexture": {
        "index": 11,
        "texCoord": 0,
        "scale": 1
      },
      "occlusionTexture": {
        "index": 10,
        "texCoord": 0,
        "strength": 1
      }
    },
    {
      "pbrMetallicRoughness": {
        "baseColorFactor": [
          1,
          1,
          1,
          1
        ],
        "metallicFactor": 1,
        "roughnessFactor": 1,
        "baseColorTexture": {
          "index": 12,
          "texCoord": 0
        },
        "metallicRoughnessTexture": {
          "index": 13,
          "texCoord": 0
        }
      },
      "emissiveFactor": [
        0,
        0,
        0
      ],
      "alphaMode": "BLEND",
      "doubleSided": false,
      "normalTexture": {
        "index": 14,
        "texCoord": 0,
        "scale": 1
      },
      "occlusionTexture": {
        "index": 13,
        "texCoord": 0,
        "strength": 1
      }
    }
  ],
  "textures": [
    {
      "sampler": 0,
      "source": 0
    },
    {
      "sampler": 1,
      "source": 1
    },
    {
      "sampler": 2,
      "source": 2
    },
    {
      "sampler": 3,
      "source": 3
    },
    {
      "sampler": 4,
      "source": 4
    },
    {
      "sampler": 5,
      "source": 5
    },
    {
      "sampler": 6,
      "source": 6
    },
    {
      "sampler": 7,
      "source": 7
    },
    {
      "sampler": 8,
      "source": 8
    },
    {
      "sampler": 9,
      "source": 9
    },
    {
      "sampler": 10,
      "source": 10
    },
    {
      "sampler": 11,
      "source": 11
    },
    {
      "sampler": 12,
      "source": 12
    },
    {
      "sampler": 13,
      "source": 13
    },
    {
      "sampler": 14,
      "source": 14
    }
  ],
  "samplers": [
    {
      "magFilter": 9729,
      "minFilter": 9987,
      "wrapS": 10497,
      "wrapT": 10497
    },
    {
      "magFilter": 9729,
      "minFilter": 9987,
      "wrapS": 10497,
      "wrapT": 10497
    },
    {
      "magFilter": 9729,
      "minFilter": 9987,
      "wrapS": 10497,
      "wrapT": 10497
    },
    {
      "magFilter": 9729,
      "minFilter": 9987,
      "wrapS": 10497,
      "wrapT": 10497
    },
    {
      "magFilter": 9729,
      "minFilter": 9987,
      "wrapS": 10497,
      "wrapT": 10497
    },
    {
      "magFilter": 9729,
      "minFilter": 9987,
      "wrapS": 10497,
      "wrapT": 10497
    },
    {
      "magFilter": 9729,
      "minFilter": 9987,
      "wrapS": 10497,
      "wrapT": 10497
    },
    {
      "magFilter": 9729,
      "minFilter": 9987,
      "wrapS": 10497,
      "wrapT": 10497
    },
    {
      "magFilter": 9729,
      "minFilter": 9987,
      "wrapS": 10497,
      "wrapT": 10497
    },
    {
      "magFilter": 9729,
      "minFilter": 9987,
      "wrapS": 10497,
      "wrapT": 10497
    },
    {
      "magFilter": 9729,
      "minFilter": 9987,
      "wrapS": 10497,
      "wrapT": 10497
    },
    {
      "magFilter": 9729,
      "minFilter": 9987,
      "wrapS": 10497,
      "wrapT": 10497
    },
    {
      "magFilter": 9729,
      "minFilter": 9987,
      "wrapS": 10497,
      "wrapT": 10497
    },
    {
      "magFilter": 9729,
      "minFilter": 9987,
      "wrapS": 10497,
      "wrapT": 10497
    },
    {
      "magFilter": 9729,
      "minFilter": 9987,
      "wrapS": 10497,
      "wrapT": 10497
    }
  ],
  "images": [
    {
      "uri": "FlightHelmet_Materials_RubberWoodMat_BaseColor.png",
      "mimeType": "image/png"
    },
    {
      "uri": "FlightHelmet_Materials_RubberWoodMat_OcclusionRoughMetal.png",
      "mimeType": "image/png"
    },
    {
      "uri": "FlightHelmet_Materials_RubberWoodMat_Normal.png",
      "mimeType": "image/png"
    },
    {
      "uri": "FlightHelmet_Materials_GlassPlasticMat_BaseColor.png",
      "mimeType": "image/png"
    },
    {
      "uri": "FlightHelmet_Materials_GlassPlasticMat_OcclusionRoughMetal.png",
      "mimeType": "image/png"
    },
    {
      "uri": "FlightHelmet_Materials_GlassPlasticMat_Normal.png",
      "mimeType": "image/png"
    },
    {
      "uri": "FlightHelmet_Materials_MetalPartsMat_BaseColor.png",
      "mimeType": "image/png"
    },
    {
      "uri": "FlightHelmet_Materials_MetalPartsMat_OcclusionRoughMetal.png",
      "mimeType": "image/png"
    },
    {
      "uri": "FlightHelmet_Materials_MetalPartsMat_Normal.png",
      "mimeType": "image/png"
    },
    {
      "uri": "FlightHelmet_Materials_LeatherPartsMat_BaseColor.png",
      "mimeType": "image/png"
    },
    {
      "uri": "FlightHelmet_Materials_LeatherPartsMat_OcclusionRoughMetal.png",
      "mimeType": "image/png"
    },
    {
      "uri": "FlightHelmet_Materials_LeatherPartsMat_Normal.png",
      "mimeType": "image/png"
    },
    {
      "uri": "FlightHelmet_Materials_LensesMat_BaseColor.png",
      "mimeType": "image/png"
    },
    {
      "uri": "FlightHelmet_Materials_LensesMat_OcclusionRoughMetal.png",
      "mimeType": "image/png"
    },
    {
      "uri": "FlightHelmet_Materials_LensesMat_Normal.png",
      "mimeType": "image/png"
    }
  ]
}