{
  "asset": {
    "generator": "glTF Tools for Unity",
    "version": "2.0"
  },
  "buffers": [
    {
      "uri": "Corset_1.bin",
      "byteLength": 662184
    }
  ],
  "bufferViews": [
    {
      "buffer": 0,
      "byteOffset": 0,
      "byteLength": 92040,
      "byteStride": 8,
      "target": 34962
    },
    {
      "buffer": 0,
      "byteOffset": 92040,
      "byteLength": 138060,
      "byteStride": 12,
      "target": 34962
    },
    {
      "buffer": 0,
      "byteOffset": 230100,
      "byteLength": 184080,
      "byteStride": 16,
      "target": 34962
    },
    {
      "buffer": 0,
      "byteOffset": 414180,
      "byteLength": 138060,
      "byteStride": 12,
      "target": 34962
    },
    {
      "buffer": 0,
      "byteOffset": 552240,
      "byteLength": 109944,
      "target": 34963
    }
  ],
  "accessors": [
    {
      "bufferView": 0,
      "byteOffset": 0,
      "componentType": 5126,
      "normalized": false,
      "count": 11505,
      "min": [
        0.0046965633518993855,
        0.0036989450454711914
      ],
      "max": [
        1,
        0.9915910959243774
      ],
      "type": "VEC2"
    },
    {
      "bufferView": 1,
      "byteOffset": 0,
      "componentType": 5126,
      "normalized": false,
      "count": 11505,
      "min": [
        -1,
        -1,
        -1
      ],
      "max": [
        1,
        1,
        1
      ],
      "type": "VEC3"
    },
    {
      "bufferView": 2,
      "byteOffset": 0,
      "componentType": 5126,
      "normalized": false,
      "count": 11505,
      "min": [
        -1,
        -1,
        -1,
        -1
      ],
      "max": [
        0.9997274279594421,
        1,
        1,
        1
      ],
      "type": "VEC4"
    },
    {
      "bufferView": 3,
      "byteOffset": 0,
      "componentType": 5126,
      "normalized": false,
      "count": 11505,
      "min": [
        -0.019474875181913376,
        0,
        -0.01947486773133278
      ],
      "max": [
        0.01947486400604248,
        0.057841528207063675,
        0.01947486400604248
      ],
      "type": "VEC3"
    },
    {
      "bufferView": 4,
      "byteOffset": 0,
      "componentType": 5123,
      "normalized": false,
      "count": 54972,
      "min": [
        0
      ],
      "max": [
        11504
      ],
      "type": "SCALAR"
    }
  ],
  "scene": 0,
  "scenes": [
    {
      "nodes": [
        0
      ],
      "name": "Corset"
    }
  ],
  "nodes": [
    {
      "name": "Corset",
      "matrix": [
        -10,
        0,
        0,
        0,
        0,
        10,
        0,
        0,
        0,
        0,
        -10,
        0,
        0,
        0,
        0,
        1
      ],
      "mesh": 0
    }
  ],
  "meshes": [
    {
      "primitives": [
        {
          "material": 0,
          "mode": 4,
          "attributes": {
            "TEXCOORD_0": 0,
            "NORMAL": 1,
            "TANGENT": 2,
            "POSITION": 3
          },
          "indices": 4
        }
      ]
    }
  ],
  "materials": [
    {
      "pbrMetallicRoughness": {
        "baseColorFactor": [
          1,
          1,
          1,
          1
        ],
        "metallicFactor": 1,
        "roughnessFactor": 1,
        "baseColorTexture": {
          "index": 0,
          "texCoord": 0
        },
        "metallicRoughnessTexture": {
          "index": 1,
          "texCoord": 0
        }
      },
      "emissiveFactor": [
        0,
        0,
        0
      ],
      "alphaMode": "OPAQUE",
      "doubleSided": false,
      "normalTexture": {
        "index": 2,
        "texCoord": 0,
        "scale": 1
      },
      "occlusionTexture": {
        "index": 1,
        "texCoord": 0,
        "strength": 1
      }
    }
  ],
  "textures": [
    {
      "sampler": 0,
      "source": 0
    },
    {
      "sampler": 1,
      "source": 1
    },
    {
      "sampler": 2,
      "source": 2
    }
  ],
  "samplers": [
    {
      "magFilter": 9729,
      "minFilter": 9987,
      "wrapS": 10497,
      "wrapT": 10497
    },
    {
      "magFilter": 9729,
      "minFilter": 9987,
      "wrapS": 10497,
      "wrapT": 10497
    },
    {
      "magFilter": 9729,
      "minFilter": 9987,
      "wrapS": 10497,
      "wrapT": 10497
    }
  ],
  "images": [
    {
      "uri": "Corset_O_base.png",
      "mimeType": "image/png"
    },
    {
      "uri": "Corset_O_metallicRoughness.png",
      "mimeType": "image/png"
    },
    {
      "uri": "Corset_O_normal.png",
      "mimeType": "image/png"
    }
  ]
}